<?xml version="1.0" standalone="no"?>
<!DOCTYPE svg PUBLIC "-//W3C//DTD SVG 20010904//EN"
 "http://www.w3.org/TR/2001/REC-SVG-20010904/DTD/svg10.dtd">
<svg version="1.0" xmlns="http://www.w3.org/2000/svg"
 width="960.000000pt" height="1280.000000pt" viewBox="0 0 960.000000 1280.000000"
 preserveAspectRatio="xMidYMid meet">
<metadata>
Created by potrace 1.16, written by Peter Selinger 2001-2019
</metadata>
<g transform="translate(0.000000,1280.000000) scale(0.100000,-0.100000)"
fill="#000000" stroke="none">
<path d="M5110 10819 c-178 -75 -229 -84 -455 -84 -110 1 -238 6 -285 12 -379
53 -636 31 -844 -73 -268 -134 -449 -406 -527 -790 -16 -79 -23 -159 -26 -294
-5 -165 -3 -198 18 -305 21 -108 23 -143 20 -345 -3 -259 6 -319 70 -458 66
-143 160 -255 304 -364 118 -89 308 -185 457 -230 43 -13 78 -26 78 -30 0 -3
-23 -11 -50 -17 -111 -24 -249 -34 -395 -28 -245 10 -473 65 -870 212 -82 30
-161 55 -175 55 -31 0 -213 71 -350 136 -299 143 -405 179 -496 172 -97 -8
-154 -79 -140 -172 8 -50 61 -148 123 -229 l46 -59 -21 -117 c-12 -64 -29
-172 -39 -239 -19 -140 -11 -188 37 -224 30 -22 167 -41 438 -61 100 -8 185
-16 188 -20 3 -3 -2 -43 -10 -89 -9 -50 -16 -138 -16 -215 0 -245 64 -392 201
-460 62 -31 131 -37 251 -23 281 32 555 117 868 268 69 33 128 57 132 54 21
-20 41 -228 41 -422 0 -225 -20 -417 -73 -695 -49 -254 -88 -474 -110 -607
-83 -520 -90 -971 -25 -1598 14 -129 25 -239 25 -245 0 -5 -26 -23 -57 -40
-135 -70 -247 -216 -260 -337 -18 -178 109 -299 359 -344 101 -18 376 -21 503
-5 367 47 548 150 575 326 4 28 10 39 20 37 96 -23 194 -22 262 4 l37 14 45
-58 c84 -109 169 -167 318 -218 106 -36 209 -48 398 -48 186 1 273 10 465 50
388 80 640 192 779 346 68 74 143 217 152 289 4 27 10 52 14 54 11 7 71 -43
175 -144 243 -236 356 -309 512 -326 123 -14 233 47 290 163 25 51 28 67 28
157 0 158 -57 293 -207 491 -105 138 -208 291 -208 308 0 6 40 30 88 52 271
129 321 399 105 568 -29 23 -124 80 -211 125 -211 111 -307 177 -427 293 -101
97 -148 151 -377 438 -68 85 -148 181 -178 213 -85 92 -84 87 -69 170 7 40 12
133 12 207 -1 517 -285 1120 -689 1460 -51 42 -112 90 -138 106 -25 16 -45 34
-45 39 0 6 23 21 52 34 72 34 151 96 234 185 81 86 139 194 199 366 40 116 75
168 137 204 23 14 123 52 222 86 368 127 596 240 875 435 69 48 131 90 137 92
15 6 12 -31 -18 -207 -25 -146 -51 -234 -99 -335 -51 -106 -97 -165 -174 -219
-91 -66 -214 -109 -539 -191 -158 -40 -294 -79 -302 -85 -24 -20 -17 -47 15
-60 42 -17 228 -5 395 25 158 29 347 86 437 131 37 19 69 30 72 25 10 -16 -24
-108 -62 -167 -80 -124 -214 -193 -474 -243 -100 -20 -147 -27 -392 -56 -121
-14 -152 -27 -141 -58 10 -24 58 -37 192 -49 123 -12 325 -1 413 21 90 23 90
23 90 -2 0 -32 -50 -99 -92 -125 -91 -56 -277 -95 -513 -107 -77 -4 -148 -11
-158 -17 -13 -7 -17 -18 -15 -41 5 -51 56 -70 201 -75 194 -7 388 28 517 93
120 61 203 177 206 288 l1 59 70 38 c137 76 230 185 277 327 31 93 33 166 8
208 l-19 30 33 43 c42 56 106 187 139 287 40 123 76 335 77 456 1 93 -1 110
-20 141 -43 69 -101 60 -242 -38 -215 -149 -332 -222 -458 -285 -168 -85 -237
-114 -504 -209 -143 -51 -234 -90 -265 -112 -70 -50 -116 -125 -167 -271 -85
-242 -164 -342 -366 -462 -36 -21 -76 -49 -91 -61 l-25 -24 -113 46 c-171 68
-400 124 -513 124 -20 0 -44 7 -52 16 -29 28 -19 51 37 84 28 18 73 50 99 71
41 35 49 38 73 29 47 -18 91 -12 125 16 30 26 69 92 85 144 4 14 16 49 27 78
l19 52 62 0 c90 0 131 24 196 116 108 151 190 338 247 559 26 103 28 124 29
320 0 169 -4 224 -18 283 -23 95 -55 189 -79 227 -23 38 -23 45 2 45 11 0 37
15 58 34 35 33 37 37 37 98 0 53 -6 76 -35 134 -47 93 -184 231 -299 298 -93
54 -239 117 -318 136 -29 6 -53 16 -53 20 0 5 13 37 30 72 36 77 37 101 5 133
-33 34 -62 31 -175 -16z m-35 -186 c-4 -10 -9 -34 -12 -53 -7 -50 23 -74 112
-90 201 -37 405 -139 530 -266 60 -61 120 -157 109 -175 -3 -5 -31 -9 -63 -9
-108 0 -127 -53 -61 -166 46 -79 95 -209 116 -307 18 -89 18 -297 -1 -414 -18
-111 -78 -299 -129 -403 -20 -41 -63 -111 -94 -155 -54 -75 -60 -80 -97 -83
l-40 -3 0 123 c0 160 -17 216 -85 291 -28 30 -57 72 -66 93 -21 49 -20 160 1
262 17 83 12 113 -20 145 -26 26 -59 20 -153 -27 -48 -25 -99 -48 -114 -51
-25 -6 -28 -4 -28 16 0 13 16 69 35 124 40 116 43 157 15 185 -28 28 -69 25
-157 -10 -41 -17 -78 -28 -83 -25 -4 3 -29 49 -55 102 -51 106 -65 123 -105
123 -57 0 -74 -31 -130 -243 -12 -44 -15 -48 -38 -42 -48 12 -138 79 -222 164
-97 100 -120 115 -160 106 -50 -11 -60 -32 -90 -188 l-11 -57 -112 114 c-82
84 -128 122 -172 144 -141 70 -241 79 -372 33 -45 -15 -105 -45 -133 -65 -29
-21 -54 -35 -57 -32 -8 8 34 185 63 267 58 160 134 281 243 381 65 60 210 138
306 164 90 25 328 29 510 10 356 -39 413 -41 556 -23 74 9 161 26 194 36 75
25 79 25 70 4z m-1455 -898 c35 -19 96 -71 171 -146 132 -134 178 -169 224
-169 56 0 88 52 111 183 l6 37 53 -51 c126 -122 281 -195 360 -169 42 14 61
40 84 116 l17 57 23 -35 c13 -19 39 -45 58 -58 28 -19 41 -22 84 -16 49 7 50
6 43 -16 -41 -128 -27 -240 32 -267 39 -18 103 -13 179 14 39 14 70 25 71 25
0 0 0 -46 0 -102 -1 -83 4 -116 23 -172 19 -55 21 -73 12 -88 -15 -25 -14 -39
8 -67 16 -21 22 -23 50 -13 47 17 63 -14 69 -137 5 -107 -11 -205 -54 -340
-34 -107 -32 -105 -85 -82 -83 38 -148 16 -136 -46 5 -25 0 -32 -41 -60 -61
-41 -196 -108 -269 -134 -340 -117 -886 -19 -1223 219 -145 103 -232 209 -297
367 l-38 90 -1 275 c0 177 -5 287 -12 309 -22 65 -26 202 -8 263 28 98 104
179 212 224 84 35 195 31 274 -11z m-1888 -1519 c35 -13 131 -56 213 -96 139
-66 273 -125 370 -163 l40 -15 -2 -103 c-3 -112 -19 -207 -59 -338 l-25 -83
-102 6 c-217 14 -462 39 -472 47 -12 12 6 156 42 334 l27 135 -22 42 c-12 24
-51 85 -87 136 -36 51 -65 99 -65 107 0 23 70 19 142 -9z m851 -398 c149 -267
176 -647 70 -973 -28 -85 -49 -128 -90 -182 -22 -28 -31 -33 -68 -33 -58 0
-94 31 -130 112 -26 57 -29 76 -33 193 -5 155 11 253 68 426 49 148 87 320 95
429 4 47 8 91 11 98 7 25 41 -6 77 -70z m2223 35 c4 -16 15 -45 26 -66 10 -21
16 -47 13 -57 -10 -30 -99 -105 -160 -134 -227 -107 -530 -8 -561 183 l-7 43
54 -7 c87 -13 337 -7 424 9 44 8 105 23 135 34 71 26 69 26 76 -5z m-1980 -63
c72 -25 226 -65 354 -92 142 -29 496 -37 644 -13 60 9 119 20 131 25 28 11 42
2 51 -34 8 -32 60 -103 107 -146 45 -41 141 -87 223 -106 94 -22 254 -15 344
16 129 44 265 151 306 241 l18 41 70 -7 c165 -16 404 -97 568 -191 410 -237
731 -711 832 -1229 26 -137 43 -315 32 -334 -5 -7 -26 3 -59 28 -146 109 -332
165 -547 164 -127 -1 -229 -19 -324 -58 -82 -35 -81 -35 -83 5 -19 258 -91
569 -180 765 -55 122 -86 165 -117 165 -52 0 -48 -68 14 -265 120 -379 146
-547 136 -870 -3 -121 -2 -216 3 -224 6 -9 -2 -35 -24 -80 -69 -138 -86 -276
-42 -341 33 -51 80 -74 143 -72 l54 1 0 -78 c0 -99 22 -219 52 -278 41 -82
117 -113 183 -74 35 20 35 20 68 1 44 -27 94 -25 140 5 35 24 39 25 59 10 82
-57 193 31 279 221 52 113 107 360 122 539 1 21 6 29 17 26 34 -10 110 -4 133
12 24 16 25 15 89 -51 36 -37 136 -157 224 -267 311 -392 439 -504 765 -672
165 -86 211 -115 244 -159 50 -65 42 -139 -24 -207 -43 -46 -77 -64 -239 -129
-148 -58 -205 -87 -292 -144 -115 -76 -228 -201 -277 -306 l-23 -50 -68 60
c-37 33 -110 104 -162 157 -178 182 -272 229 -292 148 -10 -39 43 -102 274
-328 l220 -216 -12 -82 c-12 -84 -64 -202 -113 -256 -126 -137 -418 -255 -792
-322 -152 -27 -450 -37 -563 -20 -210 33 -327 98 -420 234 -86 124 -216 428
-330 772 -103 311 -97 288 -273 965 -84 323 -105 372 -145 339 -27 -22 -16
-144 42 -449 92 -484 277 -1072 468 -1483 l36 -78 -28 -10 c-15 -6 -59 -9 -98
-7 -76 5 -95 13 -344 146 -143 76 -266 117 -417 138 -101 15 -131 15 -225 5
-60 -7 -112 -11 -114 -8 -18 18 -64 568 -71 847 -9 369 19 668 103 1130 118
643 141 799 151 1035 10 239 -28 539 -82 645 -43 87 -107 116 -141 65 -9 -14
-14 -31 -11 -39 10 -25 -306 -171 -523 -243 -117 -38 -293 -83 -328 -83 l-22
0 24 48 c31 61 81 227 97 322 21 122 16 405 -9 525 -18 85 -49 190 -77 258 -9
22 -1 21 71 -3z m3214 -1790 c150 -22 274 -80 375 -176 42 -41 55 -59 55 -82
0 -51 -19 -56 -91 -23 -89 40 -216 77 -334 97 -124 21 -367 15 -460 -11 -111
-32 -103 -33 -98 22 8 86 9 88 71 116 128 58 321 80 482 57z m20 -330 c25 -6
75 -20 113 -32 l67 -22 0 -55 c0 -78 -25 -251 -49 -342 -33 -129 -114 -299
-141 -299 -6 0 -10 38 -10 92 0 71 -4 95 -17 110 -35 39 -60 15 -103 -102 -17
-47 -39 -96 -50 -110 l-20 -25 0 115 c0 123 -11 163 -46 168 -31 4 -50 -26
-73 -117 -11 -46 -29 -100 -38 -119 -45 -91 -64 -32 -72 226 -5 186 -8 205
-25 218 -31 22 -61 17 -107 -21 -111 -93 -118 32 -12 222 39 70 52 77 188 99
88 15 319 11 395 -6z m1521 -1802 c28 -55 89 -144 159 -233 142 -179 212 -303
231 -413 18 -98 8 -104 -60 -38 -59 56 -86 67 -109 44 -28 -28 -7 -78 71 -171
41 -48 41 -49 22 -64 -32 -23 -138 -13 -203 20 -75 38 -125 79 -290 236 -152
144 -221 205 -253 222 -26 14 -24 36 12 108 35 70 116 163 189 216 40 29 194
115 206 115 2 0 13 -19 25 -42z m-3491 -748 c96 -25 211 -74 315 -135 69 -40
70 -41 73 -87 7 -111 -77 -174 -293 -218 -152 -31 -299 -43 -453 -37 -226 10
-347 50 -392 129 -20 35 -21 44 -11 84 14 55 47 109 90 147 52 45 122 86 160
93 20 4 47 13 61 20 72 39 305 41 450 4z"/>
<path d="M5520 9551 c-5 -11 -15 -86 -20 -167 -14 -203 5 -355 45 -370 36 -14
57 37 75 180 9 73 8 110 -6 205 -9 64 -23 128 -30 144 -17 32 -49 36 -64 8z"/>
<path d="M3338 9235 c-34 -19 -45 -58 -28 -91 15 -28 60 -43 213 -75 138 -28
206 -28 229 1 34 42 19 89 -40 119 -98 49 -320 77 -374 46z"/>
<path d="M4308 9136 c-67 -14 -98 -38 -98 -76 0 -62 70 -79 317 -80 166 0 199
7 209 44 14 56 -20 87 -126 112 -68 16 -226 16 -302 0z"/>
<path d="M3455 8962 c-93 -32 -139 -81 -121 -128 5 -13 16 -15 50 -12 l44 5 6
-37 c4 -27 17 -48 45 -73 64 -57 133 -61 218 -11 88 51 92 126 9 202 -44 41
-122 72 -175 72 -14 -1 -49 -8 -76 -18z"/>
<path d="M4329 8872 c-47 -24 -99 -79 -99 -103 0 -16 32 -39 54 -39 16 0 27
-10 39 -38 9 -21 28 -49 41 -61 50 -47 157 -45 242 4 52 30 74 64 74 111 0 32
-8 45 -48 84 -54 52 -102 70 -190 70 -46 0 -72 -6 -113 -28z"/>
<path d="M3814 8606 c-43 -43 -44 -77 -5 -117 34 -34 83 -39 132 -13 42 21 34
46 -19 62 -46 15 -53 27 -22 37 64 20 59 65 -7 65 -38 0 -50 -5 -79 -34z"/>
<path d="M3746 8328 c-10 -8 -17 -23 -15 -34 10 -52 434 -135 477 -92 39 39
-8 65 -186 100 -195 38 -252 44 -276 26z"/>
<path d="M5053 4293 c-34 -13 -3 -103 121 -353 94 -189 166 -308 274 -453 219
-296 454 -488 691 -566 72 -24 102 -26 118 -10 19 19 4 38 -60 75 -106 62
-250 175 -362 284 -232 224 -366 404 -630 840 -83 137 -121 191 -134 189 -3 0
-12 -3 -18 -6z"/>
</g>
</svg>
